<svg width="22" height="22" viewBox="0 0 22 22" fill="none" xmlns="http://www.w3.org/2000/svg">
<path fill-rule="evenodd" clip-rule="evenodd" d="M1.29772 1.29797C1.96161 0.634076 3.038 0.634076 3.70189 1.29797L10.9998 8.59589L18.2977 1.29797C18.9616 0.634076 20.038 0.634076 20.7019 1.29797C21.3658 1.96186 21.3658 3.03824 20.7019 3.70213L13.404 11L20.7019 18.298C21.3658 18.9619 21.3658 20.0382 20.7019 20.7021C20.038 21.366 18.9616 21.366 18.2977 20.7021L10.9998 13.4042L3.70189 20.7021C3.038 21.366 1.96161 21.366 1.29772 20.7021C0.633832 20.0382 0.633832 18.9619 1.29772 18.298L8.59564 11L1.29772 3.70213C0.633832 3.03824 0.633832 1.96186 1.29772 1.29797Z" fill="white"/>
</svg>
